<svg xmlns="http://www.w3.org/2000/svg" viewBox="0 0 100 100" role="img">

  <rect x="6" y="6" width="88" height="88" rx="4" fill="#0058a3"/>
  <polygon points="66,20 66,36 84,36 84,20 75,10" fill="#fff"/><rect x="38" y="26" width="28" height="13" rx="4" fill="#fff"/><circle cx="45" cy="41" r="3.5" fill="#0058a3"/><circle cx="59" cy="41" r="3.5" fill="#0058a3"/><g transform="translate(8,28) scale(0.46)"><circle cx="50" cy="30" r="7" fill="#fff"/>
  <rect x="44" y="38" width="12" height="20" rx="5" fill="#fff"/>
  <path d="M46 42 L34 50 M54 42 L64 36" stroke="#fff" stroke-width="5" stroke-linecap="round"/>
  <path d="M46 56 L36 76 M54 56 L62 72" stroke="#fff" stroke-width="5.5" stroke-linecap="round"/></g><g transform="translate(46,54) scale(0.3)"><circle cx="50" cy="30" r="7" fill="#fff"/>
  <rect x="44" y="38" width="12" height="20" rx="5" fill="#fff"/>
  <path d="M46 42 L34 50 M54 42 L64 36" stroke="#fff" stroke-width="5" stroke-linecap="round"/>
  <path d="M46 56 L36 76 M54 56 L62 72" stroke="#fff" stroke-width="5.5" stroke-linecap="round"/></g><circle cx="66" cy="82" r="4.5" fill="#fff"/><line x1="18" y1="82" x2="82" y2="18" stroke="#c0272d" stroke-width="7"/>

</svg>
