<svg xmlns="http://www.w3.org/2000/svg" viewBox="0 0 200 200" role="img">
<rect width="200" height="200" fill="#eef1f8"/>
<rect x="0" y="45" width="200" height="110" fill="#2a2a2a"/><rect x="10" y="60" width="180" height="80" fill="#3a3f4d"/><rect x="0" y="75" width="200" height="50" fill="#8a93a8"/><line x1="0" y1="100" x2="200" y2="100" stroke="#f5f7fb" stroke-width="2" stroke-dasharray="8,8"/>
  <g transform="translate(30,100) rotate(90)">
    <rect x="-9" y="-15" width="18" height="30" rx="5" fill="#2f6fed"/>
    <polygon points="0,-19 -6,-11 6,-11" fill="#2f6fed"/>
  </g><text x="30" y="134" font-family="Arial, sans-serif" font-size="11" font-weight="700" fill="#2f6fed" text-anchor="middle">Sie</text>
  <g transform="translate(150,100) rotate(90)">
    <rect x="-9" y="-15" width="18" height="30" rx="5" fill="#4a5266"/>
    <polygon points="0,-19 -6,-11 6,-11" fill="#4a5266"/>
  </g><line x1="45" y1="122" x2="140" y2="122" stroke="#b5790a" stroke-width="3"/>
  <defs><marker id="ah-45-122-60-122" markerWidth="8" markerHeight="8" refX="6" refY="4" orient="auto">
    <path d="M0,0 L8,4 L0,8 Z" fill="#b5790a"/></marker></defs>
  <line x1="45" y1="122" x2="60" y2="122" stroke="#b5790a" stroke-width="3"
        marker-end="url(#ah-45-122-60-122)"/>
  <defs><marker id="ah-140-122-125-122" markerWidth="8" markerHeight="8" refX="6" refY="4" orient="auto">
    <path d="M0,0 L8,4 L0,8 Z" fill="#b5790a"/></marker></defs>
  <line x1="140" y1="122" x2="125" y2="122" stroke="#b5790a" stroke-width="3"
        marker-end="url(#ah-140-122-125-122)"/><text x="100.0" y="175" font-family="Arial, sans-serif" font-size="9" font-weight="700" fill="#b5790a" text-anchor="middle">mehr Abstand im Tunnel</text>
</svg>
