<svg xmlns="http://www.w3.org/2000/svg" width="260" height="260" viewBox="0 0 260 260" role="img">
<rect width="260" height="260" fill="#eef1f8"/>
<rect x="0" y="98.0" width="260" height="64" fill="#8a93a8"/><line x1="0" y1="130" x2="260" y2="130" stroke="#f5f7fb" stroke-width="2" stroke-dasharray="9,9"/><rect x="0" y="85.5" width="260" height="13" fill="#cfd6e6"/><rect x="0" y="161.5" width="260" height="13" fill="#cfd6e6"/>
  <g transform="translate(50,140) rotate(90)">
    <rect x="-11" y="-18" width="22" height="36" rx="6" fill="#2f6fed"/>
    <polygon points="0,-23 -7,-14 7,-14" fill="#2f6fed"/><circle cx="0" cy="0" r="4.5" fill="#fff"/>
  </g><defs><marker id="ah7" markerUnits="userSpaceOnUse" markerWidth="11" markerHeight="11" refX="9.5" refY="5.5" orient="auto"><path d="M0,0.5 L10,5.5 L0,10.5 Z" fill="#2f6fed"/></marker></defs><line x1="78" y1="140" x2="108" y2="140" stroke="#2f6fed" stroke-width="3.5" stroke-linecap="round" marker-end="url(#ah7)"/>
  <circle cx="50" cy="108" r="12" fill="#fff" stroke="#2f6fed" stroke-width="2.5"/>
  <text x="50" y="113" font-family="Arial, Helvetica, sans-serif" font-size="15"
        font-weight="700" fill="#2f6fed" text-anchor="middle">A</text>
  <g transform="translate(148,156) rotate(90)">
    <rect x="-11" y="-18" width="22" height="36" rx="6" fill="#7a8296"/>
    <polygon points="0,-23 -7,-14 7,-14" fill="#7a8296"/>
  </g>
  <g transform="translate(218,156) rotate(90)">
    <rect x="-11" y="-18" width="22" height="36" rx="6" fill="#7a8296"/>
    <polygon points="0,-23 -7,-14 7,-14" fill="#7a8296"/>
  </g>
  <g transform="translate(183,158) scale(0.55,0.55) translate(-49,-50)">
    <circle cx="50" cy="30" r="8" fill="#1f3a5f"/>
    <rect x="43" y="38" width="14" height="21" rx="6" fill="#1f3a5f"/>
    <path d="M46 42 L33 51 M54 42 L65 35" stroke="#1f3a5f" stroke-width="6" stroke-linecap="round"/>
    <path d="M46 57 L35 78 M54 57 L63 74" stroke="#1f3a5f" stroke-width="6.5" stroke-linecap="round"/>
  </g><defs><marker id="ah8" markerUnits="userSpaceOnUse" markerWidth="11" markerHeight="11" refX="9.5" refY="5.5" orient="auto"><path d="M0,0.5 L10,5.5 L0,10.5 Z" fill="#1f3a5f"/></marker></defs><line x1="183" y1="138" x2="183" y2="108" stroke="#1f3a5f" stroke-width="3.5" stroke-linecap="round" marker-end="url(#ah8)"/>
  <circle cx="183" cy="194" r="12" fill="#fff" stroke="#1f3a5f" stroke-width="2.5"/>
  <text x="183" y="199" font-family="Arial, Helvetica, sans-serif" font-size="15"
        font-weight="700" fill="#1f3a5f" text-anchor="middle">B</text>
</svg>
